<?xml version="1.0" encoding="UTF-8" standalone="no"?>
<svg
   xmlns:dc="http://purl.org/dc/elements/1.1/"
   xmlns:cc="http://creativecommons.org/ns#"
   xmlns:rdf="http://www.w3.org/1999/02/22-rdf-syntax-ns#"
   xmlns:svg="http://www.w3.org/2000/svg"
   xmlns="http://www.w3.org/2000/svg"
   xmlns:sodipodi="http://sodipodi.sourceforge.net/DTD/sodipodi-0.dtd"
   xmlns:inkscape="http://www.inkscape.org/namespaces/inkscape"
   width="946.802"
   height="849.32245"
   viewBox="0 0 946.802 849.32245"
   version="1.1"
   id="svg831"
   sodipodi:docname="avalanche-avax-logo.svg"
   style="fill:none"
   inkscape:version="0.92.4 (5da689c313, 2019-01-14)">
  <metadata
     id="metadata837">
    <rdf:RDF>
      <cc:Work
         rdf:about="">
        <dc:format>image/svg+xml</dc:format>
        <dc:type
           rdf:resource="http://purl.org/dc/dcmitype/StillImage" />
        <dc:title></dc:title>
      </cc:Work>
    </rdf:RDF>
  </metadata>
  <defs
     id="defs835" />
  <sodipodi:namedview
     pagecolor="#ffffff"
     bordercolor="#666666"
     borderopacity="1"
     objecttolerance="10"
     gridtolerance="10"
     guidetolerance="10"
     inkscape:pageopacity="0"
     inkscape:pageshadow="2"
     inkscape:window-width="1920"
     inkscape:window-height="1027"
     id="namedview833"
     showgrid="false"
     inkscape:pagecheckerboard="true"
     fit-margin-top="40"
     fit-margin-left="40"
     fit-margin-right="40"
     fit-margin-bottom="40"
     inkscape:zoom="0.44382234"
     inkscape:cx="-92.29473"
     inkscape:cy="374.65323"
     inkscape:window-x="-8"
     inkscape:window-y="-8"
     inkscape:window-maximized="1"
     inkscape:current-layer="svg831" />
  <path
     d="m 257.54337,809.32246 h -145.748 c -30.625996,0 -45.753996,0 -54.977996,-5.9 -9.963,-6.46 -16.051,-17.16 -16.789,-28.97 -0.554,-10.88 7.011,-24.168 22.139,-50.73496 L 422.03737,89.3975 c 15.313,-26.936 23.061,-40.404 32.839,-45.385 10.516,-5.35 23.062,-5.35 33.578,0 9.778,4.981 17.527,18.449 32.839,45.385 l 73.982,129.144 0.377,0.659 c 16.53898,28.897 24.92598,43.551 28.58798,58.931 4.058,16.789 4.058,34.5 0,51.289 -3.69,15.497 -11.992,30.257 -28.78098,59.591 l -189.031,334.153 -0.489,0.856 c -16.648,29.13496 -25.085,43.90196 -36.778,55.04196 -12.73,12.18 -28.043,21.03 -44.832,26.02 -15.313,4.24 -32.47,4.24 -66.786,4.24 z m 368.06198,0 H 834.4454 c 30.81,0 46.31,0 55.54,-6.08 9.96,-6.46 16.23,-17.35 16.79,-29.15 0.53,-10.53 -6.87,-23.3 -21.37,-48.32296 -0.5,-0.852 -1,-1.719 -1.51,-2.601 l -104.61,-178.956 -1.19,-2.015 c -14.7,-24.858 -22.12,-37.411 -31.65,-42.263 -10.51,-5.351 -22.88,-5.351 -33.391,0 -9.594,4.981 -17.34197,18.08 -32.655,44.462 l -104.23803,178.957 -0.357,0.616 c -15.259,26.33996 -22.885,39.50296 -22.335,50.30296 0.738,11.81 6.826,22.69 16.788,29.15 9.041,5.9 24.538,5.9 55.34798,5.9 z"
     id="path829"
     inkscape:connector-curvature="0"
     style="clip-rule:evenodd;fill:#ffffff;fill-rule:evenodd"
     sodipodi:nodetypes="ssccccccccccccccccssscccccccccccccs" />
</svg>
