<?xml version="1.0" encoding="UTF-8" standalone="no"?>
<!-- Uploaded to: SVG Repo, www.svgrepo.com, Generator: SVG Repo Mixer Tools -->

<svg
   xmlns:dc="http://purl.org/dc/elements/1.1/"
   xmlns:cc="http://creativecommons.org/ns#"
   xmlns:rdf="http://www.w3.org/1999/02/22-rdf-syntax-ns#"
   xmlns:svg="http://www.w3.org/2000/svg"
   xmlns="http://www.w3.org/2000/svg"
   xmlns:sodipodi="http://sodipodi.sourceforge.net/DTD/sodipodi-0.dtd"
   xmlns:inkscape="http://www.inkscape.org/namespaces/inkscape"
   width="800px"
   height="800px"
   viewBox="0 0 24 24"
   fill="none"
   version="1.1"
   id="svg819"
   sodipodi:docname="document-1-svgrepo-com.svg"
   inkscape:version="0.92.4 (5da689c313, 2019-01-14)">
  <metadata
     id="metadata825">
    <rdf:RDF>
      <cc:Work
         rdf:about="">
        <dc:format>image/svg+xml</dc:format>
        <dc:type
           rdf:resource="http://purl.org/dc/dcmitype/StillImage" />
        <dc:title></dc:title>
      </cc:Work>
    </rdf:RDF>
  </metadata>
  <defs
     id="defs823" />
  <sodipodi:namedview
     pagecolor="#ffffff"
     bordercolor="#666666"
     borderopacity="1"
     objecttolerance="10"
     gridtolerance="10"
     guidetolerance="10"
     inkscape:pageopacity="0"
     inkscape:pageshadow="2"
     inkscape:window-width="1920"
     inkscape:window-height="1027"
     id="namedview821"
     showgrid="false"
     inkscape:pagecheckerboard="true"
     inkscape:zoom="0.53625"
     inkscape:cx="513.8386"
     inkscape:cy="241.05227"
     inkscape:window-x="-8"
     inkscape:window-y="-8"
     inkscape:window-maximized="1"
     inkscape:current-layer="svg819" />
  <path
     fill-rule="evenodd"
     clip-rule="evenodd"
     d="M4 4.69434V18.6943C4 20.3512 5.34315 21.6943 7 21.6943H17C18.6569 21.6943 20 20.3512 20 18.6943V8.69434C20 7.03748 18.6569 5.69434 17 5.69434H5C4.44772 5.69434 4 5.24662 4 4.69434ZM7.25 11.6943C7.25 11.2801 7.58579 10.9443 8 10.9443H16C16.4142 10.9443 16.75 11.2801 16.75 11.6943C16.75 12.1085 16.4142 12.4443 16 12.4443H8C7.58579 12.4443 7.25 12.1085 7.25 11.6943ZM7.25 15.1943C7.25 14.7801 7.58579 14.4443 8 14.4443H13.5C13.9142 14.4443 14.25 14.7801 14.25 15.1943C14.25 15.6085 13.9142 15.9443 13.5 15.9443H8C7.58579 15.9443 7.25 15.6085 7.25 15.1943Z"
     fill="#1C274D"
     id="path815"
     style="fill:#ffffff" />
  <path
     opacity="0.5"
     d="M18 4.00038V5.86504C17.6872 5.75449 17.3506 5.69434 17 5.69434H5C4.44772 5.69434 4 5.24662 4 4.69434V4.62329C4 4.09027 4.39193 3.63837 4.91959 3.56299L15.7172 2.02048C16.922 1.84835 18 2.78328 18 4.00038Z"
     fill="#1C274D"
     id="path817"
     style="fill:#333333" />
</svg>
