<?xml version="1.0" encoding="UTF-8" standalone="no"?>
<svg
   xmlns:dc="http://purl.org/dc/elements/1.1/"
   xmlns:cc="http://creativecommons.org/ns#"
   xmlns:rdf="http://www.w3.org/1999/02/22-rdf-syntax-ns#"
   xmlns:svg="http://www.w3.org/2000/svg"
   xmlns="http://www.w3.org/2000/svg"
   xmlns:sodipodi="http://sodipodi.sourceforge.net/DTD/sodipodi-0.dtd"
   xmlns:inkscape="http://www.inkscape.org/namespaces/inkscape"
   viewBox="0 0 24 24"
   version="1.1"
   id="svg818"
   sodipodi:docname="twitter.svg"
   inkscape:version="0.92.4 (5da689c313, 2019-01-14)">
  <metadata
     id="metadata824">
    <rdf:RDF>
      <cc:Work
         rdf:about="">
        <dc:format>image/svg+xml</dc:format>
        <dc:type
           rdf:resource="http://purl.org/dc/dcmitype/StillImage" />
      </cc:Work>
    </rdf:RDF>
  </metadata>
  <defs
     id="defs822" />
  <sodipodi:namedview
     pagecolor="#ffffff"
     bordercolor="#666666"
     borderopacity="1"
     objecttolerance="10"
     gridtolerance="10"
     guidetolerance="10"
     inkscape:pageopacity="0"
     inkscape:pageshadow="2"
     inkscape:window-width="716"
     inkscape:window-height="480"
     id="namedview820"
     showgrid="false"
     inkscape:zoom="35.75"
     inkscape:cx="12"
     inkscape:cy="12"
     inkscape:window-x="0"
     inkscape:window-y="0"
     inkscape:window-maximized="1"
     inkscape:current-layer="svg818" />
  <g
     id="twitter"
     style="fill:#ffffff">
    <path
       d="M19.83,8c0,.17,0,.35,0,.52A11.41,11.41,0,0,1,8.35,20a11.41,11.41,0,0,1-6.2-1.81c.33,0,.64,0,1,0a8.09,8.09,0,0,0,5-1.73,4,4,0,0,1-3.78-2.8,4.81,4.81,0,0,0,.77.06,4.66,4.66,0,0,0,1.06-.13A4,4,0,0,1,3,9.67v0a4.13,4.13,0,0,0,1.82.51A4.06,4.06,0,0,1,3,6.77a4,4,0,0,1,.54-2A11.47,11.47,0,0,0,11.85,9a4.71,4.71,0,0,1-.1-.92,4,4,0,0,1,7-2.77,7.93,7.93,0,0,0,2.56-1,4,4,0,0,1-1.78,2.22,7.94,7.94,0,0,0,2.33-.62,8.91,8.91,0,0,1-2,2.09Z"
       id="path815"
       style="fill:#ffffff" />
  </g>
</svg>
